<?xml version="1.0" encoding="utf-8"?>
<!-- Generator: Adobe Illustrator 23.1.0, SVG Export Plug-In . SVG Version: 6.00 Build 0)  -->
<svg version="1.1" xmlns="http://www.w3.org/2000/svg" xmlns:xlink="http://www.w3.org/1999/xlink" x="0px" y="0px"
	 viewBox="0 0 88 31" style="enable-background:new 0 0 88 31;" xml:space="preserve">
<style type="text/css">
	.st0{stroke:#FFFFFF;stroke-width:0.25;stroke-miterlimit:10.0003;}
	.st1{stroke:#FFFFFF;stroke-width:0.25;stroke-miterlimit:10;}
	.st2{fill:#FFFFFF;stroke:#FFFFFF;stroke-width:0.25;stroke-miterlimit:10;}
	.st3{fill:none;stroke:#000000;stroke-width:0.5;stroke-miterlimit:10;}
</style>
<g id="Слой_1">
	
		<ellipse transform="matrix(0.0154 -0.9999 0.9999 0.0154 0.3658 26.7605)" class="st0" cx="13.77" cy="13.19" rx="10.81" ry="10.68"/>
	<g>
		<path class="st1" d="M9.8,9.13l5.31-0.01v1.37L9.8,10.5c-0.17,0-0.32,0.07-0.45,0.2c-0.12,0.13-0.19,0.28-0.19,0.46l0.02,7.69
			l-1.34,0.01l-0.02-7.69c0-0.56,0.19-1.04,0.58-1.43C8.79,9.33,9.26,9.13,9.8,9.13z"/>
		<path class="st1" d="M16.15,5.93l1.34-0.01V7.3L16.15,7.3V5.93z M16.18,18.83l-0.02-9.71l1.34-0.01l0.02,9.71L16.18,18.83z"/>
		<path class="st1" d="M29.37,9.08l1.56-0.01l-5.2,9.72l-1.55,0.01l-5.23-9.69l1.56-0.01l4.44,8.36L29.37,9.08z"/>
		<path class="st1" d="M32.31,5.89l1.34-0.01v1.37l-1.34,0.01V5.89z M32.34,18.79l-0.02-9.71l1.34-0.01l0.02,9.71L32.34,18.79z"/>
		<path class="st1" d="M39.76,14.88l-3.05,3.89l-1.76,0.01l3.93-4.95 M40.64,13.82l3.96,4.93l-1.76,0.01l-3.08-3.88 M39.76,12.74
			l3.07-3.69l1.74-0.01l-3.93,4.79 M38.89,13.83l-3.95-4.76l1.76-0.01l3.07,3.67"/>
		<path class="st1" d="M55.32,9.61c-0.38-0.4-0.85-0.59-1.4-0.59l-7.62,0.02v1.37l7.63-0.02c0.17,0,0.32,0.06,0.45,0.19
			c0.12,0.13,0.19,0.28,0.19,0.46l0.01,2.14L46.3,13.2l0.01,3.52c0,0.56,0.19,1.04,0.58,1.43c0.01,0.01,0.01,0.01,0.01,0.01
			c0.3-0.34,0.61-0.68,0.91-1.01c-0.11-0.12-0.17-0.27-0.17-0.43l-0.01-2.14l6.93-0.02l0.01,2.8l-5.26,0.01
			c-0.42,0.45-0.83,0.91-1.24,1.37c0.07,0.01,0.14,0.01,0.21,0.01l7.63-0.02l-0.02-7.69C55.9,10.48,55.71,10.01,55.32,9.61z"/>
		<path class="st1" d="M57.41,5.82h1.34l0.02,10.87c0,0.18,0.06,0.33,0.19,0.46c0.12,0.13,0.27,0.19,0.45,0.19l1.6-0.01v1.37
			l-1.6,0.01c-0.54,0-1.01-0.2-1.39-0.59c-0.38-0.4-0.58-0.87-0.58-1.43L57.41,5.82z"/>
	</g>
	<path class="st2" d="M9.8,9.13l5.31-0.01v1.37L9.8,10.5c-0.17,0-0.32,0.07-0.45,0.2c-0.12,0.13-0.19,0.28-0.19,0.46l0.02,7.69
		l-1.34,0.01l-0.02-7.69c0-0.56,0.19-1.04,0.58-1.43C8.79,9.33,9.26,9.13,9.8,9.13z"/>
	<path class="st2" d="M16.15,5.93l1.34-0.01V7.3L16.15,7.3V5.93z M16.18,18.83l-0.02-9.71l1.34-0.01l0.02,9.71L16.18,18.83z"/>
	<path class="st2" d="M24.18,18.81l-0.66-1.21 M25.73,18.8l-1.55,0.01 M30.93,9.08l-5.2,9.72 M29.37,9.08l1.56-0.01 M25.38,16.67
		l3.99-7.59 M24.96,17.47l0.42-0.79 M24.12,15.88l0.84,1.59 M23.53,17.59L18.96,9.1l1.56-0.01l3.6,6.78"/>
	<line class="st3" x1="7.83" y1="8.28" x2="10.11" y2="12.39"/>
	<g>
		<path d="M41.5,24.79l0.45,0.45c-0.16,0.2-0.36,0.36-0.62,0.48s-0.53,0.19-0.84,0.19c-0.28,0-0.53-0.05-0.76-0.14
			c-0.23-0.09-0.43-0.22-0.6-0.39c-0.17-0.17-0.3-0.37-0.39-0.59s-0.14-0.48-0.14-0.75c0-0.27,0.05-0.51,0.14-0.74
			s0.23-0.43,0.4-0.59s0.37-0.3,0.6-0.39s0.48-0.14,0.76-0.14c0.3,0,0.58,0.06,0.83,0.18s0.45,0.29,0.61,0.49L41.5,23.3
			c-0.11-0.16-0.25-0.29-0.42-0.38s-0.36-0.14-0.57-0.14c-0.23,0-0.43,0.05-0.61,0.17c-0.18,0.11-0.32,0.26-0.42,0.45
			s-0.16,0.41-0.16,0.65c0,0.25,0.05,0.47,0.16,0.66s0.24,0.34,0.42,0.45c0.18,0.11,0.38,0.17,0.61,0.17c0.21,0,0.4-0.05,0.57-0.14
			C41.25,25.08,41.39,24.95,41.5,24.79z"/>
		<path d="M43.65,25.91c-0.27,0-0.51-0.06-0.72-0.17c-0.21-0.12-0.37-0.27-0.49-0.48c-0.12-0.2-0.17-0.43-0.17-0.69
			c0-0.26,0.06-0.49,0.17-0.7c0.12-0.2,0.28-0.36,0.49-0.47c0.21-0.12,0.45-0.17,0.72-0.17s0.52,0.06,0.73,0.17
			c0.21,0.11,0.37,0.27,0.49,0.47c0.12,0.2,0.18,0.43,0.18,0.69c0,0.26-0.06,0.49-0.18,0.69c-0.12,0.2-0.28,0.36-0.49,0.48
			C44.16,25.85,43.92,25.91,43.65,25.91z M43.65,25.36c0.14,0,0.26-0.03,0.37-0.1s0.19-0.16,0.25-0.28
			c0.06-0.12,0.09-0.25,0.09-0.41c0-0.16-0.03-0.29-0.09-0.41s-0.14-0.21-0.25-0.28s-0.23-0.1-0.37-0.1c-0.14,0-0.26,0.03-0.37,0.1
			s-0.19,0.16-0.25,0.28c-0.06,0.12-0.09,0.26-0.09,0.41c0,0.15,0.03,0.29,0.09,0.41c0.06,0.12,0.14,0.21,0.25,0.28
			S43.51,25.36,43.65,25.36z"/>
		<path d="M47.13,25.91c-0.35,0-0.65-0.05-0.9-0.16s-0.45-0.26-0.59-0.46s-0.21-0.44-0.21-0.71c0-0.28,0.07-0.51,0.21-0.71
			c0.14-0.2,0.33-0.35,0.59-0.46c0.25-0.11,0.56-0.16,0.9-0.16h0.26c0.35,0,0.65,0.05,0.9,0.16c0.25,0.11,0.45,0.26,0.59,0.46
			c0.14,0.2,0.21,0.44,0.21,0.71c0,0.27-0.07,0.51-0.21,0.71c-0.14,0.2-0.33,0.36-0.59,0.46c-0.25,0.11-0.55,0.16-0.9,0.16H47.13z
			 M47.13,25.37h0.26c0.34,0,0.6-0.07,0.78-0.21c0.18-0.14,0.27-0.33,0.27-0.59c0-0.26-0.09-0.46-0.27-0.59
			c-0.18-0.14-0.44-0.21-0.78-0.21h-0.26c-0.34,0-0.6,0.07-0.78,0.2c-0.18,0.14-0.27,0.33-0.27,0.6c0,0.26,0.09,0.45,0.27,0.59
			C46.53,25.3,46.79,25.37,47.13,25.37z M46.94,26.85v-1.21l0.02-0.08v-1.94l-0.02-0.09v-1.31h0.65v1.31l-0.02,0.09v1.94l0.02,0.08
			v1.21H46.94z"/>
		<path d="M49.3,23.85v-0.53h2.36v0.53H49.3z M50.15,25.83v-2.29h0.66v2.29H50.15z"/>
		<path d="M53.09,25.83v-2.52h0.63v1.68l-0.03-0.01l1.26-1.67h0.58v2.52h-0.63v-1.68l0.03,0.01l-1.26,1.67H53.09z"/>
		<path d="M57.19,25.83v-2.52h0.66v2.52H57.19z M57.5,24.78v-0.53h1.85v0.53H57.5z M58.97,25.83v-2.52h0.66v2.52H58.97z"/>
		<path d="M62.43,25.05l0.35,0.4c-0.13,0.14-0.29,0.26-0.49,0.34s-0.42,0.12-0.66,0.12c-0.29,0-0.54-0.06-0.76-0.17
			c-0.22-0.11-0.39-0.27-0.52-0.47c-0.12-0.2-0.18-0.43-0.18-0.7c0-0.26,0.06-0.5,0.18-0.7c0.12-0.2,0.28-0.36,0.48-0.47
			s0.44-0.17,0.69-0.17c0.25,0,0.47,0.06,0.67,0.17s0.35,0.27,0.46,0.46c0.11,0.2,0.17,0.42,0.17,0.68v0.03h-0.64v-0.07
			c0-0.15-0.03-0.29-0.08-0.4c-0.05-0.11-0.13-0.2-0.22-0.26s-0.21-0.09-0.34-0.09c-0.14,0-0.26,0.03-0.36,0.1
			c-0.1,0.06-0.18,0.16-0.24,0.28c-0.06,0.12-0.09,0.27-0.09,0.43c0,0.18,0.04,0.33,0.11,0.45c0.07,0.13,0.17,0.22,0.29,0.29
			c0.13,0.07,0.27,0.1,0.43,0.1C61.97,25.4,62.22,25.28,62.43,25.05z M62.82,24.78H60.6v-0.42h2.14l0.08,0.2V24.78z"/>
		<path d="M64.11,23.85v-0.53h2.36v0.53H64.11z M64.96,25.83v-2.29h0.66v2.29H64.96z"/>
		<path d="M68.07,25.91c-0.27,0-0.51-0.06-0.72-0.17c-0.21-0.12-0.37-0.27-0.49-0.48c-0.12-0.2-0.17-0.43-0.17-0.69
			c0-0.26,0.06-0.49,0.17-0.7c0.12-0.2,0.28-0.36,0.49-0.47c0.21-0.12,0.45-0.17,0.72-0.17s0.52,0.06,0.73,0.17
			c0.21,0.11,0.37,0.27,0.49,0.47c0.12,0.2,0.18,0.43,0.18,0.69c0,0.26-0.06,0.49-0.18,0.69c-0.12,0.2-0.28,0.36-0.49,0.48
			C68.59,25.85,68.34,25.91,68.07,25.91z M68.07,25.36c0.14,0,0.26-0.03,0.37-0.1s0.19-0.16,0.25-0.28
			c0.06-0.12,0.09-0.25,0.09-0.41c0-0.16-0.03-0.29-0.09-0.41s-0.14-0.21-0.25-0.28s-0.23-0.1-0.37-0.1c-0.14,0-0.26,0.03-0.37,0.1
			s-0.19,0.16-0.25,0.28c-0.06,0.12-0.09,0.26-0.09,0.41c0,0.15,0.03,0.29,0.09,0.41c0.06,0.12,0.14,0.21,0.25,0.28
			S67.93,25.36,68.07,25.36z"/>
		<path d="M69.75,25.83v-0.54h0.17c0.09,0,0.16-0.02,0.2-0.06c0.04-0.04,0.07-0.11,0.08-0.21l0.16-1.71h1.97v2.52h-0.66v-2.42
			l0.48,0.43h-1.67l0.5-0.43l-0.18,1.75c-0.03,0.25-0.1,0.43-0.22,0.52s-0.3,0.15-0.55,0.15H69.75z"/>
		<path d="M73.02,25.83v-2.52h0.64v2.43L73.2,25.3h1.02c0.13,0,0.23-0.03,0.3-0.09c0.07-0.06,0.1-0.14,0.1-0.25
			c0-0.11-0.03-0.2-0.1-0.25s-0.17-0.09-0.3-0.09h-0.83v-0.54h0.89c0.31,0,0.56,0.08,0.74,0.24c0.18,0.16,0.28,0.36,0.28,0.61
			c0,0.18-0.04,0.34-0.13,0.48c-0.08,0.13-0.2,0.24-0.35,0.31c-0.15,0.07-0.33,0.11-0.53,0.11H73.02z"/>
		<path d="M75.73,25.83v-2.52h0.66v2.52H75.73z M77.43,25.83l-1.19-1.31h0.05l1.08-1.21h0.79l-1.29,1.43l-0.04-0.44l1.42,1.53H77.43
			z"/>
		<path d="M79.71,25.91c-0.27,0-0.51-0.06-0.72-0.17c-0.21-0.12-0.37-0.27-0.49-0.48c-0.12-0.2-0.17-0.43-0.17-0.69
			c0-0.26,0.06-0.49,0.17-0.7c0.12-0.2,0.28-0.36,0.49-0.47c0.21-0.12,0.45-0.17,0.72-0.17s0.52,0.06,0.73,0.17
			c0.21,0.11,0.37,0.27,0.49,0.47c0.12,0.2,0.18,0.43,0.18,0.69c0,0.26-0.06,0.49-0.18,0.69c-0.12,0.2-0.28,0.36-0.49,0.48
			C80.23,25.85,79.99,25.91,79.71,25.91z M79.71,25.36c0.14,0,0.26-0.03,0.37-0.1s0.19-0.16,0.25-0.28
			c0.06-0.12,0.09-0.25,0.09-0.41c0-0.16-0.03-0.29-0.09-0.41s-0.14-0.21-0.25-0.28s-0.23-0.1-0.37-0.1c-0.14,0-0.26,0.03-0.37,0.1
			s-0.19,0.16-0.25,0.28C79.04,24.28,79,24.42,79,24.58c0,0.15,0.03,0.29,0.09,0.41c0.06,0.12,0.14,0.21,0.25,0.28
			S79.58,25.36,79.71,25.36z"/>
		<path d="M83.35,23.72c0,0.11-0.04,0.2-0.12,0.28s-0.18,0.12-0.29,0.12c-0.11,0-0.21-0.04-0.29-0.12
			c-0.08-0.08-0.12-0.17-0.12-0.28c0-0.11,0.04-0.21,0.12-0.29c0.08-0.08,0.18-0.12,0.29-0.12c0.12,0,0.21,0.04,0.29,0.12
			S83.35,23.61,83.35,23.72z M83.35,25.48c0,0.11-0.04,0.2-0.12,0.28s-0.18,0.12-0.29,0.12c-0.11,0-0.21-0.04-0.29-0.12
			c-0.08-0.08-0.12-0.17-0.12-0.28c0-0.11,0.04-0.21,0.12-0.29c0.08-0.08,0.18-0.12,0.29-0.12c0.12,0,0.21,0.04,0.29,0.12
			C83.31,25.27,83.35,25.37,83.35,25.48z"/>
		<path d="M85.07,24.32c0,0.4-0.06,0.79-0.18,1.15s-0.29,0.7-0.52,1.01h-0.63c0.46-0.7,0.69-1.42,0.69-2.15
			c0-0.37-0.06-0.74-0.17-1.09c-0.12-0.35-0.29-0.71-0.52-1.05h0.63c0.23,0.31,0.4,0.65,0.52,1S85.07,23.92,85.07,24.32z"/>
	</g>
</g>
<g id="Слой_2">
</g>
</svg>
