<?xml version="1.0" encoding="utf-8"?>
<!-- Generator: Adobe Illustrator 23.1.0, SVG Export Plug-In . SVG Version: 6.00 Build 0)  -->
<svg version="1.1" xmlns="http://www.w3.org/2000/svg" xmlns:xlink="http://www.w3.org/1999/xlink" x="0px" y="0px"
	 viewBox="0 0 88 31" style="enable-background:new 0 0 88 31;" xml:space="preserve">
<style type="text/css">
	.st0{stroke:#FFFFFF;stroke-width:0.25;stroke-miterlimit:10.0003;}
	.st1{stroke:#FFFFFF;stroke-width:0.25;stroke-miterlimit:10;}
	.st2{fill:#FFFFFF;stroke:#FFFFFF;stroke-width:0.25;stroke-miterlimit:10;}
	.st3{fill:none;stroke:#000000;stroke-width:0.5;stroke-miterlimit:10;}
	.st4{fill:none;}
	.st5{font-family:'WixMadeforDisplay-Bold';}
	.st6{font-size:5px;}
</style>
<g id="Слой_1">
	
		<ellipse transform="matrix(0.0154 -0.9999 0.9999 0.0154 0.3658 26.7605)" class="st0" cx="13.77" cy="13.19" rx="10.81" ry="10.68"/>
	<g>
		<path class="st1" d="M9.8,9.13l5.31-0.01v1.37L9.8,10.5c-0.17,0-0.32,0.07-0.45,0.2c-0.12,0.13-0.19,0.28-0.19,0.46l0.02,7.69
			l-1.34,0.01l-0.02-7.69c0-0.56,0.19-1.04,0.58-1.43C8.79,9.33,9.26,9.13,9.8,9.13z"/>
		<path class="st1" d="M16.15,5.93l1.34-0.01V7.3L16.15,7.3V5.93z M16.18,18.83l-0.02-9.71l1.34-0.01l0.02,9.71L16.18,18.83z"/>
		<path class="st1" d="M29.37,9.08l1.56-0.01l-5.2,9.72l-1.55,0.01l-5.23-9.69l1.56-0.01l4.44,8.36L29.37,9.08z"/>
		<path class="st1" d="M32.31,5.89l1.34-0.01v1.37l-1.34,0.01V5.89z M32.34,18.79l-0.02-9.71l1.34-0.01l0.02,9.71L32.34,18.79z"/>
		<path class="st1" d="M39.76,14.88l-3.05,3.89l-1.76,0.01l3.93-4.95 M40.64,13.82l3.96,4.93l-1.76,0.01l-3.08-3.88 M39.76,12.74
			l3.07-3.69l1.74-0.01l-3.93,4.79 M38.89,13.83l-3.95-4.76l1.76-0.01l3.07,3.67"/>
		<path class="st1" d="M55.32,9.61c-0.38-0.4-0.85-0.59-1.4-0.59l-7.62,0.02v1.37l7.63-0.02c0.17,0,0.32,0.06,0.45,0.19
			c0.12,0.13,0.19,0.28,0.19,0.46l0.01,2.14L46.3,13.2l0.01,3.52c0,0.56,0.19,1.04,0.58,1.43c0.01,0.01,0.01,0.01,0.01,0.01
			c0.3-0.34,0.61-0.68,0.91-1.01c-0.11-0.12-0.17-0.27-0.17-0.43l-0.01-2.14l6.93-0.02l0.01,2.8l-5.26,0.01
			c-0.42,0.45-0.83,0.91-1.24,1.37c0.07,0.01,0.14,0.01,0.21,0.01l7.63-0.02l-0.02-7.69C55.9,10.48,55.71,10.01,55.32,9.61z"/>
		<path class="st1" d="M57.41,5.82h1.34l0.02,10.87c0,0.18,0.06,0.33,0.19,0.46c0.12,0.13,0.27,0.19,0.45,0.19l1.6-0.01v1.37
			l-1.6,0.01c-0.54,0-1.01-0.2-1.39-0.59c-0.38-0.4-0.58-0.87-0.58-1.43L57.41,5.82z"/>
	</g>
	<path class="st2" d="M9.8,9.13l5.31-0.01v1.37L9.8,10.5c-0.17,0-0.32,0.07-0.45,0.2c-0.12,0.13-0.19,0.28-0.19,0.46l0.02,7.69
		l-1.34,0.01l-0.02-7.69c0-0.56,0.19-1.04,0.58-1.43C8.79,9.33,9.26,9.13,9.8,9.13z"/>
	<path class="st2" d="M16.15,5.93l1.34-0.01V7.3L16.15,7.3V5.93z M16.18,18.83l-0.02-9.71l1.34-0.01l0.02,9.71L16.18,18.83z"/>
	<path class="st2" d="M24.18,18.81l-0.66-1.21 M25.73,18.8l-1.55,0.01 M30.93,9.08l-5.2,9.72 M29.37,9.08l1.56-0.01 M25.38,16.67
		l3.99-7.59 M24.96,17.47l0.42-0.79 M24.12,15.88l0.84,1.59 M23.53,17.59L18.96,9.1l1.56-0.01l3.6,6.78"/>
	<line class="st3" x1="7.83" y1="8.28" x2="10.11" y2="12.39"/>
	<rect x="38.36" y="22.23" class="st4" width="47.64" height="5.77"/>
	<text transform="matrix(1 0 0 1 38.3574 25.8315)" class="st5 st6">Софт и не только :)</text>
</g>
<g id="Слой_2">
</g>
</svg>
